<svg aria-hidden="true" style="position:absolute;width:0;height:0;overflow:hidden" xmlns="http://www.w3.org/2000/svg"><defs><symbol id="icon-youtube" viewBox="0 0 44 32"><path d="M38.567 1.23c1.808.496 3.231 1.958 3.714 3.814.878 3.364.878 10.382.878 10.382s0 7.018-.878 10.382c-.483 1.856-1.907 3.317-3.714 3.814-3.276.901-16.413.901-16.413.901s-13.137 0-16.413-.901c-1.808-.496-3.231-1.958-3.714-3.814-.878-3.364-.878-10.382-.878-10.382s0-7.019.878-10.382C2.51 3.188 3.934 1.726 5.741 1.23 9.017.329 22.154.329 22.154.329s13.137 0 16.413.901zM18.215 9.518v13.128l10.503-6.564-10.503-6.564z"/></symbol><symbol id="icon-web" viewBox="0 0 32 32"><path d="M31.17 15.979a15.186 15.186 0 0 1-1.193 5.896 15.214 15.214 0 0 1-5.494 6.664 15.352 15.352 0 0 1-2.577 1.397A15.264 15.264 0 0 1 16 31.129a15.228 15.228 0 0 1-5.906-1.193 15.322 15.322 0 0 1-2.578-1.397 15.228 15.228 0 0 1-5.494-6.664 15.127 15.127 0 0 1-.886-2.847 15.331 15.331 0 0 1 0-6.099 15.082 15.082 0 0 1 2.285-5.421 15.28 15.28 0 0 1 1.852-2.242 15.266 15.266 0 0 1 4.821-3.247 15.009 15.009 0 0 1 2.851-.882 15.303 15.303 0 0 1 6.111 0c.974.198 1.933.495 2.85.882.899.382 1.767.851 2.577 1.4a15.517 15.517 0 0 1 2.245 1.847 15.337 15.337 0 0 1 1.851 2.242 15.026 15.026 0 0 1 2.283 5.421c.205.996.309 2.023.309 3.05zM10.472 4.277a12.958 12.958 0 0 0-7.15 9.034c.342.003 5.74.071 11.961-1.579a77.731 77.731 0 0 0-4.811-7.455zm5.884 9.447c-6.671 1.994-13.072 1.851-13.301 1.842-.004.139-.01.274-.01.413 0 3.323 1.256 6.353 3.319 8.644-.004-.007 3.541-6.288 10.532-8.545.169-.056.341-.107.511-.155a43.607 43.607 0 0 0-1.051-2.198zm8.199-7.455a12.906 12.906 0 0 0-8.556-3.227c-1.053 0-2.074.127-3.053.362.194.26 2.628 3.484 4.843 7.546 4.889-1.83 6.734-4.635 6.766-4.682zM18.29 18.066l-.086.028c-7.644 2.661-10.14 8.023-10.167 8.082A12.94 12.94 0 0 0 16 28.915c1.794 0 3.503-.365 5.058-1.025-.192-1.13-.945-5.092-2.768-9.823zm4.949 8.642a12.938 12.938 0 0 0 5.551-8.678c-.267-.086-3.891-1.232-8.073-.562 1.699 4.663 2.39 8.461 2.522 9.241zm-4.452-13.829a40.674 40.674 0 0 1 1.141 2.546c4.451-.559 8.835.382 9.023.42a12.862 12.862 0 0 0-2.946-8.085c-.025.035-2.102 3.033-7.218 5.119z"/></symbol><symbol id="icon-instagram" viewBox="0 0 32 32"><path d="M16.001.829c-4.12 0-4.637.018-6.255.092-1.615.074-2.717.33-3.682.705-.998.388-1.844.906-2.687 1.749s-1.362 1.69-1.751 2.687C1.25 7.027.994 8.13.921 9.744.849 11.362.83 11.88.83 16s.018 4.636.092 6.254c.074 1.615.33 2.717.705 3.682.388.998.906 1.844 1.75 2.687s1.689 1.363 2.686 1.751c.965.375 2.068.631 3.683.705 1.618.074 2.135.092 6.255.092s4.636-.018 6.254-.092c1.615-.074 2.719-.33 3.684-.705a7.434 7.434 0 0 0 2.686-1.751 7.45 7.45 0 0 0 1.751-2.687c.373-.965.629-2.068.705-3.682.073-1.618.092-2.134.092-6.254s-.019-4.637-.092-6.255c-.076-1.615-.332-2.717-.705-3.682-.389-.998-.907-1.844-1.751-2.687s-1.688-1.362-2.686-1.749c-.967-.375-2.07-.631-3.685-.705C20.636.848 20.121.83 15.999.83h.005zM14.64 3.563h1.361c4.051 0 4.531.015 6.13.087 1.479.068 2.282.315 2.817.522.708.275 1.213.604 1.743 1.135s.86 1.037 1.135 1.745c.208.534.455 1.337.522 2.816.073 1.599.089 2.08.089 6.128s-.016 4.529-.089 6.128c-.068 1.479-.315 2.282-.522 2.816-.275.708-.604 1.212-1.135 1.743s-1.035.86-1.743 1.135c-.534.209-1.338.455-2.817.523-1.599.073-2.08.089-6.13.089s-4.531-.016-6.13-.089c-1.479-.068-2.282-.315-2.817-.523-.708-.275-1.214-.604-1.745-1.135s-.86-1.035-1.135-1.744c-.208-.534-.455-1.337-.522-2.816-.073-1.599-.087-2.08-.087-6.131s.015-4.529.087-6.128c.068-1.479.315-2.282.522-2.817.275-.708.604-1.214 1.135-1.745s1.037-.86 1.745-1.135c.535-.209 1.338-.455 2.817-.523 1.399-.063 1.942-.082 4.769-.085v.004zm9.459 2.519a1.82 1.82 0 1 0 0 3.64 1.82 1.82 0 0 0 0-3.64zm-8.098 2.127c-4.302 0-7.791 3.488-7.791 7.791s3.488 7.789 7.791 7.789a7.79 7.79 0 0 0 0-15.58zm0 2.734a5.057 5.057 0 1 1 0 10.114 5.057 5.057 0 0 1 0-10.114z"/></symbol><symbol id="icon-design" viewBox="0 0 32 32"><path d="m21.653 15.347 2.093-2.093-5-5-2.093 2.093-5.52-5.507a2.671 2.671 0 0 0-3.773 0L4.827 7.373a2.671 2.671 0 0 0 0 3.773l5.507 5.507L4.001 23v5h5l6.347-6.347 5.507 5.507c1.267 1.267 2.973.8 3.773 0l2.533-2.533a2.671 2.671 0 0 0 0-3.773l-5.507-5.507zm-9.413-.587L6.72 9.253 9.24 6.72l1.693 1.693L9.36 10l1.88 1.88 1.587-1.587 1.933 1.933-2.52 2.533zm10.507 10.52-5.507-5.507 2.533-2.533 1.933 1.933-1.587 1.587 1.88 1.88 1.587-1.587 1.693 1.693-2.533 2.533zm4.866-15.893a1.323 1.323 0 0 0 .289-1.449 1.323 1.323 0 0 0-.289-.431l-3.12-3.12c-.627-.627-1.493-.387-1.88 0l-2.44 2.44 5 5 2.44-2.44z"/></symbol><symbol id="icon-learning" viewBox="0 0 32 32"><path d="M7.333 2.667h15.333A3.333 3.333 0 0 1 25.999 6v9.084a8.674 8.674 0 0 0-8.8 2.116 8.664 8.664 0 0 0-2.116 8.8H5.999a1.33 1.33 0 0 0 1.334 1.333h8.309a8.704 8.704 0 0 0 1.437 2H7.332A3.333 3.333 0 0 1 3.999 26V6a3.333 3.333 0 0 1 3.333-3.333zm2 4a1.335 1.335 0 0 0-1.334 1.334v1.333a1.33 1.33 0 0 0 1.334 1.333H20a1.333 1.333 0 0 0 1.334-1.333V8.001A1.335 1.335 0 0 0 20 6.667H9.333z"/><path d="M30.667 23.333a7.333 7.333 0 1 0-14.666 0 7.333 7.333 0 0 0 14.666 0zm-8.115-3.204 3.741 2.453a.806.806 0 0 1 .373.693.879.879 0 0 1-.096.399.768.768 0 0 1-.264.301l-3.743 2.553a.86.86 0 0 1-.211.103.738.738 0 0 1-.527-.031.909.909 0 0 1-.257-.18.957.957 0 0 1-.173-.267.818.818 0 0 1-.063-.316v-5.011a.828.828 0 0 1 .489-.76.737.737 0 0 1 .73.06v.001z"/></symbol><symbol id="icon-human-resoruces" viewBox="0 0 32 32"><path d="M4 6v20a2 2 0 0 0 2 2h20a2 2 0 0 0 2-2V6a2 2 0 0 0-2-2H6a2 2 0 0 0-2 2zm8.667 7.333a2 2 0 1 1-4.001-.001 2 2 0 0 1 4.001.001zM8 18.485v2.182H6.667v-2.182c0-.525.247-.95.558-1.264.306-.307.7-.538 1.091-.709.779-.34 1.703-.511 2.351-.511s1.572.171 2.351.511c.391.171.785.402 1.091.709.311.314.558.739.558 1.264v2.182h-1.333v-2.182c0-.079-.031-.184-.171-.325-.146-.147-.376-.295-.679-.427-.61-.267-1.352-.4-1.817-.4s-1.207.133-1.817.4c-.303.133-.534.281-.679.427-.139.14-.171.245-.171.324zm10.837-.324c-.14.14-.171.245-.171.324v2.182h-1.333v-2.182c0-.525.247-.95.558-1.264.306-.307.7-.538 1.091-.709.779-.34 1.703-.511 2.351-.511s1.572.171 2.351.511c.391.171.785.402 1.091.709.312.314.558.739.558 1.264v2.182H24v-2.182c0-.079-.031-.184-.171-.324-.145-.147-.376-.295-.679-.427-.609-.267-1.352-.4-1.817-.4s-1.207.133-1.817.4c-.303.132-.533.28-.679.427v.001zm2.496-2.828a2 2 0 1 1 .001-4.001 2 2 0 0 1-.001 4.001zM18 12a2 2 0 1 1-4.001-.001A2 2 0 0 1 18 12zm-3.169 4.777-.995-.888c.35-.392.787-.516 1.165-.553.229-.022.513-.015.747-.009.095.003.181.005.252.005s.157-.003.252-.005c.233-.006.517-.014.747.008.379.037.815.161 1.165.553l-.995.888c-.047-.053-.112-.095-.301-.114a3.015 3.015 0 0 0-.369-.007l-.135.004c-.113.003-.242.007-.365.007s-.251-.004-.365-.007l-.135-.003a3.188 3.188 0 0 0-.369.008c-.189.018-.254.061-.301.113z"/></symbol><symbol id="icon-shopping-cart" viewBox="0 0 32 32"><path d="M12 28.444A2.222 2.222 0 1 0 12 24a2.222 2.222 0 0 0 0 4.444zM23.556 28.444a2.222 2.222 0 1 0 0-4.444 2.222 2.222 0 0 0 0 4.444zM29.422 5.68a.883.883 0 0 0-.702-.347H8.187l-.4-1.271a.896.896 0 0 0-.586-.578l-3.644-1.12a.904.904 0 0 0-.681.065.89.89 0 0 0-.371 1.207.89.89 0 0 0 .527.435l3.191.978 4.071 12.862-1.449 1.191-.116.116a2.365 2.365 0 0 0-.071 3.004 2.444 2.444 0 0 0 2.009.889h14.836a.887.887 0 0 0 .629-1.518.888.888 0 0 0-.629-.26H10.525a.598.598 0 0 1-.499-.889l2.142-1.778h13.716a.89.89 0 0 0 .889-.676l2.844-11.556a.886.886 0 0 0-.195-.755z"/></symbol><symbol id="icon-mobile" viewBox="0 0 32 32"><path d="M23 0H9C7.35 0 6 1.35 6 3v26c0 1.65 1.35 3 3 3h14c1.65 0 3-1.35 3-3V3c0-1.65-1.35-3-3-3zM12 1.5h8v1h-8v-1zM16 30a2 2 0 1 1 .001-4.001A2 2 0 0 1 16 30zm8-6H8V4h16v20z"/></symbol><symbol id="icon-branding" viewBox="0 0 32 32"><path d="M28 4H4a2.675 2.675 0 0 0-2.667 2.667v18.667c0 1.467 1.2 2.667 2.667 2.667h24c1.467 0 2.667-1.2 2.667-2.667V6.667C30.667 5.2 29.467 4 28 4zm-1.333 21.333h-9.333c-.733 0-1.333-.6-1.333-1.333v-5.333c0-.733.6-1.333 1.333-1.333h9.333c.733 0 1.333.6 1.333 1.333V24c0 .733-.6 1.333-1.333 1.333z"/></symbol><symbol id="icon-payments" viewBox="0 0 32 32"><path d="M25.333 18.667V8c0-1.467-1.2-2.667-2.667-2.667H3.999A2.675 2.675 0 0 0 1.332 8v10.667c0 1.467 1.2 2.667 2.667 2.667h18.667c1.467 0 2.667-1.2 2.667-2.667zm-12-1.334c-2.213 0-4-1.787-4-4s1.787-4 4-4 4 1.787 4 4-1.787 4-4 4zm17.334-8V24c0 1.467-1.2 2.667-2.667 2.667H5.333V24H28V9.333h2.667z"/></symbol><symbol id="icon-subway" viewBox="0 0 32 32"><path d="M5.862 7.162c-.294.069-.106.056-.35.088-1.044.225-.269.425.35-.088zm18.357.419c.075-.05.338-.306-.481-.556.05.256-.169.231-.169.375.606.55.856 1.506 1.631 1.706.15-.688-.688-1.025-.981-1.525zM5.306 6.963c.094.556.513-.588.519-.994a5.208 5.208 0 0 1-.494.263c.394.2.05.412-.375.731-.862 1.075.806-.838.35 0zM16 0C7.162 0 0 7.162 0 16c0 8.831 7.162 16 16 16s16-7.169 16-16c0-8.838-7.162-16-16-16zm.425 5.362.075.025c-.3.388 1.562 1.519.225 1.612-1.25.356.525-.325-.444-.206.512-.713-.406-.725.144-1.431zM8.838 6.388c-.45-.375-1.863.513-1.369.3 1.225-.481.081.05.369.625-.263.544-.088-.537-.737.106-.469.106-1.619 1.169-1.475.844-.037.506-1.369 1.106-1.55 1.95-.438 1.169-.106-.044-.188-.5-.625-.794-1.763 1.344-1.425 2.188.569-1 .525-.106.112.338.419.769-.381 1.769.413 2.338.35.081 1.05-1.175.744.131.212-1.131.588.269 1.194-.044.037.594.406.319.487 1.038 1.013-.075 1.938 1.638.731 1.962.181-.05.537.269.95.025.7.556 2.544.625 2.594 2-1.269.606-.312 2.269-1.412 2.862-1.263-.188-.431 1.556-.963 1.356.213 1.256-1.275-.162-.7.531 1.056.65-.463.519.013.994-.531-.113.331.987.475 1.394.763 1.238-.656-.275-1.075-.687-.4-.8-1.344-2.331-1.606-3.588-.15-1.825-1.563-3.05-1.888-4.831-.325-.994.894-2.587.237-3.144-.569-.444-.337-1.963-.675-2.763.844-3.656 3.525-6.737 6.744-8.562-.331.244 1.894-.631 1.638-.419-.069.156 1.3-.594 2.125-.706-.088.013-2.144.75-1.575.65-.881.431-.087.188.35-.031-.875.644-1.55.462-2.544 1.031-1 .262-.794 1.3-1.506 1.819.419.075 1.469-1.081 2.081-1.487 1.406-.681-.712 1.237.625.412-.45.419-.356 1.087-.631 1.275-.138-.037.544.325-.562.594zm2.187-2.875c-.144.194-.344.612-.462.356-.162.081-.225.431-.531.15.181-.131.369-.444.012-.25.162-.175 1.612-.669 1.531-.856.256-.163.231-.244-.063-.144-.15-.05.356-.475 1.031-.531.094 0 .131.063-.038.044-1.019.313-.581.225.106 0-.262.15-.444.194-.488.263.688-.25-.037.181.119.15-.194.1.031.131-.344.275.069-.056-.612.406-.206.269-.394.375-.569.381-.669.275zm.6.893c.013-.6.875-.981.769-1.013 1.062-.5-.369.019.469-.431.313-.031.975-1.031 1.894-1.094 1.012-.306.544.019 1.294-.269l-.15.125c-.131.019.031.25-.444.6-.05.544-.906.294-.481.875-.275-.394-.688-.013-.169.025-.556.425-1.85.5-2.469 1.206-.4.575-.769.394-.713-.025zm4.444 2c-.425 1.025-.837-.15-.087-.338.187.1.262.131.087.338zm-1.6-2.05c-.125-.462-.025-.219.719-.438.512.369-.456.612-.719.438zM26.106 22.7c-.588-1.012.712-1.95 1.15-2.8-.056.994-.181 1.975-1.15 2.8zm2.213-11.569c-.637.05-1.212.2-1.787-.163-1.325-1.45.244 1.638.681.375 1.575.6-.025 3.188-1.019 2.919-.556-1.2-1.244-2.519-2.456-3.106.931 1.031 1.394 2.3 2.394 3.231.069 1.3 1.387-.475 1.306.531.125 1.731-1.956 2.769-1.594 4.506.775 1.581-1.494 1.869-1.238 3.288-.912 1.019-1.888 2.394-3.525 2.175 0-.863-.438-1.594-.538-2.481-.888-1.125.938-2.331-.194-3.506-1.306-.294.269-2.094-1.075-1.925-.806-.806-1.988-.025-3.144-.019-1.45.138-2.944-1.781-2.3-3.138-.513-1.412 1.625-1.825 1.681-3.069 1.025-.856 2.481-.75 3.869-.95-.1.994.95 1 1.744 1.331.444-1.075 1.825.175 2.769-.506.325-1.587-.919-.631-1.631-1.137-.862-1.263 1.844-.65 1.562-1.312-1.05-.006-.456-1.294-1.2-.575.669.119-.119.644-.1.044-1.012-.294-.037 1.15-.55 1.288-.781-.325-.413.369-.331.475-.338.731-.75-1.075-1.706-1.025-.95-.869-.375.394.45.6-.175.05.1.769-.119.462-.681-.938-1.975-1.563-2.744-.412-.081 1.075-2.269 1.381-1.919.125-.512-1.3 1.588-.038 1.394-1.075-1.35-.894.369-.606.825-1.444 1.038.031.044-.85.531-1.106-.05.956.794.775 1.462.594-.162-.55.4-.531.056-.987 1.55-.619-1.181.287-.631-1.069-.669-.462-.281 1.019 0 1.175.019.456-.369 1.019-.9.063-.775.506-.694-.513-.744-.406-.088-.394.588-.412.594-1.1-.056-.438-.044-.669.269-.694.025.063 1.281.081 1.725.6-1.212-.244-.181.2.362.45-.581-.456.231 0-.244-.519.188.038-.519-.712.206-.056-.394-.469.769-.331.081-.681 1.006.281.412.025-.181-.231-1.637-.975 2.894 1.319 1.044.3 1.181.256-2.525-.913-.838-.4-.644-.281-.019-.125.563.056-1.044-.325-2.606-.931-2.544-.956.362.025.719.106 1.062.206 1.069.319-.306-.075-.012-.069 3.675.944 6.894 3.406 8.85 6.625.456.481 1.7 3.662 1.05 2.25.294 1.125.337 2.337.494 3.487-.325-.362-.688-1.7-1-2.444-.131.288-.281-.406-.763-.594z"/></symbol><symbol id="icon-secure-payment" viewBox="0 0 32 32"><path d="m14.667 2.667 9.731 3.04a1.335 1.335 0 0 1 .936 1.273v2.353h2.667a1.335 1.335 0 0 1 1.334 1.334v2.667H12.002v-2.667a1.335 1.335 0 0 1 1.334-1.334h9.333V7.96l-8-2.501-8 2.501v9.872a5.336 5.336 0 0 0 2.077 4.225l.252.181 5.671 3.868 5.043-3.44h-6.376a1.335 1.335 0 0 1-1.334-1.334v-5.333h17.333v5.333a1.335 1.335 0 0 1-1.334 1.334l-4.293.001a7.977 7.977 0 0 1-1.867 1.773l-7.173 4.892-7.173-4.891a8.01 8.01 0 0 1-3.493-6.611V6.978a1.336 1.336 0 0 1 .936-1.272l9.731-3.041z"/></symbol><symbol id="icon-ten-plus" viewBox="0 0 69 32"><path d="M.982 8.661V.81h13.141v31.189H5.376V8.66H.981zm17.396 7.296c0-4.892.995-8.747 2.987-11.563S26.485.17 30.752.17s7.395 1.408 9.387 4.224c2.02 2.816 3.029 6.67 3.029 11.563 0 4.949-.996 8.832-2.987 11.648s-5.134 4.224-9.429 4.224-7.438-1.408-9.429-4.224c-1.963-2.816-2.944-6.699-2.944-11.648zm16.512 0c0-2.56-.27-4.508-.811-5.845-.541-1.365-1.65-2.048-3.328-2.048s-2.788.683-3.328 2.048c-.541 1.337-.811 3.285-.811 5.845 0 2.617.256 4.608.768 5.973.54 1.337 1.664 2.005 3.371 2.005s2.816-.669 3.328-2.005c.54-1.365.811-3.357.811-5.973zm33.333 5.12h-6.869v7.083h-8.021v-7.083h-6.912v-7.552h6.912V6.4h8.021v7.125h6.869v7.552z"/></symbol><symbol id="icon-arrow" viewBox="0 0 20 20"><path d="M6.15238e-05 10.8333L14.655 10.8333L10.2442 15.2442L11.4225 16.4225L17.845 9.99999L11.4225 3.57749L10.2442 4.75582L14.655 9.16665L6.16695e-05 9.16665L6.15238e-05 10.8333Z"/></symbol><symbol id="icon-circle" viewBox="0 0 10 10"><circle cx="5" cy="5" r="5"/></symbol><symbol id="icon-quote-mark" viewBox="0 0 80 68" ><path d="M0.350845 57.3796C12.2805 51.4794 18.2452 44.5467 18.2452 36.5813C13.1605 35.9913 8.95581 33.9017 5.63116 30.3124C2.3065 26.723 0.644196 22.5684 0.644196 17.8482C0.644196 12.833 2.25761 8.6045 5.48448 5.16269C8.71136 1.72088 12.7693 0 17.6585 0C23.1344 0 27.8769 2.23714 31.886 6.7115C35.8952 11.1859 37.8997 16.6189 37.8997 23.0108C37.8997 42.1866 27.2414 57.1829 5.92451 68L0.350845 57.3796ZM42.4511 57.3796C54.4785 51.4794 60.4922 44.5467 60.4922 36.5813C55.3096 35.9913 51.0561 33.9017 47.7314 30.3124C44.4068 26.723 42.7445 22.5684 42.7445 17.8482C42.7445 12.833 44.3823 8.6045 47.6581 5.16269C50.9339 1.72088 55.0163 0 59.9055 0C65.3814 0 70.0994 2.23714 74.0596 6.7115C78.0199 11.1859 80 16.6189 80 23.0108C80 42.1866 69.3906 57.1829 48.1714 68L42.4511 57.3796Z"/></symbol></defs></svg>